<svg width="36" height="36" viewBox="0 0 36 36" fill="none" xmlns="http://www.w3.org/2000/svg">
<path fill-rule="evenodd" clip-rule="evenodd" d="M17.9993 4.28516C10.4259 4.28516 4.28516 10.5806 4.28516 18.3467C4.28516 24.5592 8.21489 29.8301 13.6635 31.6893C14.3491 31.8197 14.6009 31.3844 14.6009 31.0131C14.6009 30.6778 14.5882 29.57 14.582 28.3949C10.7668 29.2457 9.96193 26.7361 9.96193 26.7361C9.33786 25.111 8.43909 24.6786 8.43909 24.6786C7.19458 23.8059 8.53283 23.8236 8.53283 23.8236C9.90997 23.923 10.6349 25.2729 10.6349 25.2729C11.8583 27.4226 13.8433 26.8011 14.626 26.4418C14.7492 25.5331 15.1044 24.9124 15.4966 24.5614C12.4506 24.2064 9.24865 23.0004 9.24865 17.6124C9.24865 16.0774 9.78425 14.8228 10.6614 13.8383C10.5191 13.484 10.0497 12.0537 10.7946 10.1169C10.7946 10.1169 11.9461 9.73876 14.5662 11.5582C15.6605 11.2467 16.8336 11.0906 17.9991 11.085C19.1646 11.0906 20.3388 11.2467 21.4347 11.5582C24.0523 9.73895 25.2023 10.1167 25.2023 10.1167C25.9487 12.0533 25.4794 13.4836 25.3368 13.8377C26.2161 14.8224 26.7481 16.0768 26.7481 17.6118C26.7481 23.0131 23.54 24.2019 20.4863 24.5501C20.9781 24.9867 21.4165 25.8423 21.4165 27.1543C21.4165 29.0358 21.4009 30.5502 21.4009 31.0131C21.4009 31.3876 21.6474 31.8257 22.3425 31.6879C27.7893 29.8265 31.7136 24.5575 31.7136 18.3469C31.7134 10.5806 25.5733 4.28516 17.9993 4.28516Z" fill="black"/>
<path d="M9.4807 24.4727C9.45036 24.5427 9.34317 24.5639 9.24561 24.5155C9.14568 24.4697 9.09027 24.3743 9.12242 24.3043C9.15204 24.2325 9.25923 24.2126 9.35861 24.2605C9.45817 24.3065 9.51486 24.4026 9.4807 24.4727ZM10.0347 25.1083C9.96925 25.1705 9.84116 25.1418 9.75486 25.0434C9.66475 24.9453 9.64821 24.8139 9.71453 24.751C9.78175 24.6889 9.90602 24.718 9.99559 24.8162C10.0855 24.9153 10.1031 25.0453 10.0347 25.1083ZM10.5753 25.9186C10.4912 25.9788 10.3537 25.9227 10.2687 25.7975C10.1845 25.6723 10.1845 25.5224 10.2705 25.4622C10.3559 25.4022 10.4912 25.4566 10.5775 25.5803C10.6611 25.7075 10.6611 25.8573 10.5753 25.9186ZM11.3179 26.7012C11.2427 26.7861 11.0826 26.7632 10.9654 26.6472C10.8455 26.5339 10.8121 26.3729 10.8873 26.288C10.9636 26.2029 11.1246 26.2265 11.2427 26.342C11.3617 26.4549 11.3978 26.617 11.3179 26.7012ZM12.3398 27.1552C12.3064 27.2651 12.1527 27.3154 11.9972 27.2682C11.8418 27.2202 11.7403 27.0913 11.7719 26.9801C11.8039 26.8692 11.959 26.8171 12.1153 26.8672C12.2703 26.915 12.3722 27.0432 12.3398 27.1552ZM13.4617 27.239C13.4654 27.355 13.3338 27.4514 13.171 27.4532C13.0068 27.4569 12.874 27.3631 12.8722 27.249C12.8722 27.1317 13.0012 27.0367 13.1647 27.0339C13.3282 27.0302 13.4617 27.1239 13.4617 27.2388M14.5064 27.0574C14.5258 27.1702 14.4126 27.2865 14.2506 27.3174C14.0914 27.3476 13.9441 27.2775 13.9239 27.1656C13.9039 27.0495 14.0193 26.9335 14.1783 26.9035C14.3405 26.8744 14.4857 26.9424 14.5064 27.0574Z" fill="black"/>
</svg>
