<svg width="32" height="32" viewBox="0 0 32 32" fill="none" xmlns="http://www.w3.org/2000/svg">
<path d="M1.77734 5.82346C1.77734 4.90824 2.09767 4.1532 2.7383 3.55834C3.37894 2.96345 4.21179 2.66602 5.2368 2.66602C6.24353 2.66602 7.05804 2.95886 7.68039 3.54461C8.32102 4.14864 8.64135 4.9357 8.64135 5.90583C8.64135 6.78442 8.33019 7.51656 7.70785 8.10231C7.06721 8.70634 6.22522 9.00836 5.18189 9.00836H5.15444C4.1477 9.00836 3.33319 8.70634 2.71085 8.10231C2.0885 7.49828 1.77734 6.73865 1.77734 5.82346ZM2.13427 29.8475V11.5069H8.22951V29.8475H2.13427ZM11.6066 29.8475H17.7018V19.6064C17.7018 18.9657 17.7751 18.4715 17.9215 18.1238C18.1777 17.5014 18.5667 16.9752 19.0884 16.545C19.61 16.1149 20.2644 15.8998 21.0515 15.8998C23.1015 15.8998 24.1266 17.2818 24.1266 20.0457V29.8475H30.2218V19.3318C30.2218 16.6228 29.5812 14.5682 28.2999 13.1679C27.0186 11.7677 25.3255 11.0676 23.2205 11.0676C20.8593 11.0676 19.0197 12.0834 17.7018 14.1152V14.1701H17.6744L17.7018 14.1152V11.5069H11.6066C11.6432 12.0926 11.6615 13.9138 11.6615 16.9706C11.6615 20.0274 11.6432 24.3196 11.6066 29.8475Z" fill="black"/>
</svg>
