<svg width="118" height="17" viewBox="0 0 118 17" fill="none" xmlns="http://www.w3.org/2000/svg">
<path d="M0.375 16V0.101562H3.51172V16H0.375ZM9.8152 16.2471C8.95582 16.2471 8.22893 16.0752 7.63453 15.7314C7.04013 15.3805 6.58896 14.8792 6.28102 14.2275C5.98023 13.5758 5.82984 12.7917 5.82984 11.875V4.33398H8.96656V11.1875C8.96656 11.9824 9.13844 12.5911 9.48219 13.0137C9.82594 13.4362 10.3595 13.6475 11.0828 13.6475C11.5698 13.6475 11.9851 13.54 12.3289 13.3252C12.6798 13.1104 12.9483 12.8096 13.1345 12.4229C13.3207 12.029 13.4138 11.5742 13.4138 11.0586V4.33398H16.5505V16H13.4138V14.1416H13.2849C13.0056 14.7933 12.5724 15.3089 11.9851 15.6885C11.3979 16.0609 10.6746 16.2471 9.8152 16.2471ZM24.0894 16.2471C22.8934 16.2471 21.8657 16.0036 21.0064 15.5166C20.1542 15.0296 19.4989 14.3314 19.0405 13.4219C18.5894 12.5124 18.3638 11.4238 18.3638 10.1562V10.1348C18.3638 8.87435 18.5894 7.79297 19.0405 6.89062C19.4989 5.98828 20.1542 5.2972 21.0064 4.81738C21.8657 4.33757 22.8898 4.09766 24.0786 4.09766C25.1242 4.09766 26.0265 4.28385 26.7857 4.65625C27.5448 5.02865 28.1428 5.54427 28.5796 6.20312C29.0165 6.86198 29.2671 7.62109 29.3316 8.48047V8.53418H26.4204L26.3989 8.46973C26.3058 7.91113 26.0659 7.4528 25.6792 7.09473C25.2925 6.73665 24.7697 6.55762 24.1109 6.55762C23.5737 6.55762 23.1118 6.70085 22.7251 6.9873C22.3456 7.2666 22.0555 7.6748 21.855 8.21191C21.6545 8.74186 21.5542 9.38639 21.5542 10.1455V10.167C21.5542 10.9404 21.6545 11.5957 21.855 12.1328C22.0627 12.6699 22.3563 13.0817 22.7359 13.3682C23.1154 13.6475 23.5737 13.7871 24.1109 13.7871C24.7482 13.7871 25.2567 13.6224 25.6362 13.293C26.023 12.9635 26.2772 12.5016 26.3989 11.9072L26.4204 11.8428H29.3316V11.9072C29.2528 12.7523 28.9914 13.5007 28.5474 14.1523C28.1105 14.804 27.5161 15.3161 26.7642 15.6885C26.0122 16.0609 25.1206 16.2471 24.0894 16.2471ZM34.3675 16.1826C33.6083 16.1826 32.9387 16.0358 32.3587 15.7422C31.7786 15.4486 31.3238 15.0368 30.9944 14.5068C30.665 13.9769 30.5003 13.3646 30.5003 12.6699V12.6484C30.5003 11.5957 30.8942 10.7686 31.6819 10.167C32.4697 9.56543 33.5869 9.22168 35.0335 9.13574L39.4807 8.85645V10.79L35.5061 11.0479C34.8688 11.0837 34.3889 11.2269 34.0667 11.4775C33.7444 11.7282 33.5833 12.0612 33.5833 12.4766V12.498C33.5833 12.9349 33.7516 13.2786 34.0882 13.5293C34.4248 13.7728 34.8616 13.8945 35.3987 13.8945C35.8785 13.8945 36.3046 13.8014 36.677 13.6152C37.0494 13.429 37.343 13.1748 37.5579 12.8525C37.7799 12.5231 37.8909 12.1543 37.8909 11.7461V8.12598C37.8909 7.61035 37.7226 7.20931 37.386 6.92285C37.0566 6.63639 36.5768 6.49316 35.9466 6.49316C35.3736 6.49316 34.9117 6.60417 34.5608 6.82617C34.2099 7.04102 33.9843 7.33105 33.8841 7.69629L33.8626 7.76074H30.9837L30.9944 7.65332C31.066 6.94434 31.3131 6.32487 31.7356 5.79492C32.1653 5.26497 32.749 4.84961 33.4866 4.54883C34.2242 4.24805 35.0943 4.09766 36.097 4.09766C37.1139 4.09766 37.9876 4.25879 38.718 4.58105C39.4557 4.89616 40.0214 5.34733 40.4153 5.93457C40.8092 6.52181 41.0061 7.21647 41.0061 8.01855V16H37.8909V14.3564H37.762C37.5543 14.736 37.2822 15.0618 36.9456 15.334C36.609 15.6061 36.2223 15.8174 35.7854 15.9678C35.3486 16.111 34.8759 16.1826 34.3675 16.1826ZM47.9756 16.2471C46.9086 16.2471 45.9991 16.0967 45.2471 15.7959C44.5023 15.488 43.9187 15.069 43.4961 14.5391C43.0736 14.002 42.823 13.3825 42.7442 12.6807L42.7334 12.6055H45.8057L45.8272 12.6807C45.9418 13.0889 46.1745 13.4147 46.5254 13.6582C46.8835 13.9017 47.3741 14.0234 47.9971 14.0234C48.3982 14.0234 48.7419 13.9733 49.0284 13.873C49.322 13.7728 49.5476 13.6296 49.7051 13.4434C49.8698 13.25 49.9522 13.028 49.9522 12.7773V12.7666C49.9522 12.4515 49.8304 12.1973 49.587 12.0039C49.3506 11.8034 48.9424 11.6387 48.3623 11.5098L46.3965 11.0908C45.2793 10.8545 44.4379 10.457 43.8721 9.89844C43.3135 9.33984 43.0342 8.62728 43.0342 7.76074V7.75C43.0342 7.00521 43.2347 6.36068 43.6358 5.81641C44.0368 5.27214 44.6026 4.84961 45.333 4.54883C46.0707 4.24805 46.9265 4.09766 47.9004 4.09766C48.9245 4.09766 49.7946 4.25879 50.5108 4.58105C51.2341 4.89616 51.7891 5.32227 52.1758 5.85938C52.5625 6.38932 52.7702 6.98372 52.7989 7.64258V7.71777H49.8985L49.8877 7.65332C49.8233 7.28092 49.6228 6.96582 49.2862 6.70801C48.9496 6.44303 48.4877 6.31055 47.9004 6.31055C47.5424 6.31055 47.2273 6.36426 46.9551 6.47168C46.683 6.57194 46.4717 6.71517 46.3213 6.90137C46.1709 7.08757 46.0957 7.30957 46.0957 7.56738V7.57812C46.0957 7.88607 46.2139 8.1403 46.4502 8.34082C46.6866 8.53418 47.1019 8.69531 47.6963 8.82422L49.6621 9.24316C50.8581 9.49382 51.7282 9.87337 52.2725 10.3818C52.8168 10.8903 53.0889 11.5742 53.0889 12.4336V12.4443C53.0889 13.2106 52.8705 13.8802 52.4336 14.4531C51.9968 15.0189 51.3952 15.4593 50.6289 15.7744C49.8627 16.0895 48.9782 16.2471 47.9756 16.2471Z" fill="#757575"/>
<path d="M61.7557 16.2148C60.9249 16.2148 60.2016 16.0286 59.5857 15.6562C58.977 15.2839 58.5187 14.7646 58.2107 14.0986H58.0926V16H54.9559V0.101562H58.0926V6.28906H58.2107C58.5187 5.61589 58.9842 5.08594 59.6072 4.69922C60.2303 4.3125 60.9464 4.11914 61.7557 4.11914C62.7368 4.11914 63.5818 4.36263 64.2908 4.84961C64.9998 5.32943 65.5441 6.02051 65.9236 6.92285C66.3032 7.81803 66.493 8.89583 66.493 10.1562V10.1777C66.493 11.4238 66.2996 12.498 65.9129 13.4004C65.5333 14.3027 64.9891 14.9974 64.2801 15.4844C63.5711 15.9714 62.7296 16.2148 61.7557 16.2148ZM60.7029 13.6152C61.24 13.6152 61.702 13.4792 62.0887 13.207C62.4826 12.9277 62.7833 12.5303 62.991 12.0146C63.1987 11.499 63.3025 10.8867 63.3025 10.1777V10.1562C63.3025 9.44727 63.1951 8.83854 62.9803 8.33008C62.7726 7.81445 62.4718 7.41699 62.0779 7.1377C61.6912 6.8584 61.2329 6.71875 60.7029 6.71875C60.173 6.71875 59.7111 6.8584 59.3172 7.1377C58.9233 7.41699 58.6154 7.81445 58.3934 8.33008C58.1785 8.8457 58.0711 9.45801 58.0711 10.167V10.1777C58.0711 10.8867 58.1785 11.499 58.3934 12.0146C58.6154 12.5231 58.9233 12.917 59.3172 13.1963C59.7111 13.4756 60.173 13.6152 60.7029 13.6152ZM72.2164 16.2471C71.357 16.2471 70.6301 16.0752 70.0357 15.7314C69.4413 15.3805 68.9901 14.8792 68.6822 14.2275C68.3814 13.5758 68.231 12.7917 68.231 11.875V4.33398H71.3677V11.1875C71.3677 11.9824 71.5396 12.5911 71.8834 13.0137C72.2271 13.4362 72.7606 13.6475 73.4839 13.6475C73.9709 13.6475 74.3863 13.54 74.73 13.3252C75.081 13.1104 75.3495 12.8096 75.5357 12.4229C75.7219 12.029 75.815 11.5742 75.815 11.0586V4.33398H78.9517V16H75.815V14.1416H75.6861C75.4068 14.7933 74.9735 15.3089 74.3863 15.6885C73.7991 16.0609 73.0757 16.2471 72.2164 16.2471ZM86.4798 16.2471C85.2982 16.2471 84.2777 16.0036 83.4183 15.5166C82.5661 15.0225 81.9108 14.3242 81.4525 13.4219C80.9941 12.5124 80.765 11.4346 80.765 10.1885V10.1777C80.765 8.9388 80.9941 7.86458 81.4525 6.95508C81.9108 6.04557 82.5589 5.34375 83.3968 4.84961C84.2347 4.34831 85.2194 4.09766 86.3509 4.09766C87.4896 4.09766 88.4707 4.34115 89.2943 4.82812C90.125 5.30794 90.7659 5.98828 91.2171 6.86914C91.6683 7.74284 91.8939 8.76693 91.8939 9.94141V10.9189H82.3118V8.94238H90.4007L88.9183 10.8008V9.56543C88.9183 8.87793 88.8109 8.30143 88.596 7.83594C88.3883 7.37044 88.0947 7.02311 87.7152 6.79395C87.3428 6.55762 86.9059 6.43945 86.4046 6.43945C85.9105 6.43945 85.47 6.5612 85.0833 6.80469C84.7038 7.04102 84.403 7.39551 84.181 7.86816C83.9661 8.33366 83.8587 8.89941 83.8587 9.56543V10.8115C83.8587 11.4561 83.9661 12.0111 84.181 12.4766C84.403 12.9349 84.7145 13.2858 85.1155 13.5293C85.5166 13.7728 85.9928 13.8945 86.5443 13.8945C86.9883 13.8945 87.3678 13.8301 87.6829 13.7012C88.0052 13.5651 88.263 13.4004 88.4564 13.207C88.6569 13.0065 88.793 12.8132 88.8646 12.627L88.8968 12.5625H91.7972L91.765 12.6807C91.679 13.0817 91.5107 13.4899 91.2601 13.9053C91.0166 14.3206 90.68 14.7074 90.2503 15.0654C89.8278 15.4163 89.305 15.7028 88.682 15.9248C88.0589 16.1396 87.3249 16.2471 86.4798 16.2471ZM93.6964 16V4.33398H96.8331V6.20312H96.962C97.2484 5.55143 97.6817 5.03939 98.2618 4.66699C98.8419 4.28743 99.5616 4.09766 100.421 4.09766C101.71 4.09766 102.698 4.48079 103.386 5.24707C104.073 6.01335 104.417 7.08757 104.417 8.46973V16H101.28V9.14648C101.28 8.35156 101.105 7.74642 100.754 7.33105C100.403 6.90853 99.866 6.69727 99.1427 6.69727C98.67 6.69727 98.2618 6.80469 97.918 7.01953C97.5743 7.23438 97.3057 7.53516 97.1124 7.92188C96.9262 8.30859 96.8331 8.75977 96.8331 9.27539V16H93.6964ZM111.913 16.2471C110.731 16.2471 109.707 16.0036 108.841 15.5166C107.981 15.0296 107.319 14.335 106.853 13.4326C106.388 12.5231 106.155 11.4382 106.155 10.1777V10.1562C106.155 8.90299 106.391 7.8252 106.864 6.92285C107.337 6.01335 108.003 5.3151 108.862 4.82812C109.722 4.34115 110.738 4.09766 111.913 4.09766C113.087 4.09766 114.104 4.34115 114.964 4.82812C115.83 5.30794 116.5 6.0026 116.973 6.91211C117.445 7.81445 117.681 8.89583 117.681 10.1562V10.1777C117.681 11.4453 117.449 12.5339 116.983 13.4434C116.518 14.3457 115.852 15.0404 114.985 15.5273C114.126 16.0072 113.102 16.2471 111.913 16.2471ZM111.924 13.7871C112.454 13.7871 112.908 13.6439 113.288 13.3574C113.675 13.071 113.968 12.6592 114.169 12.1221C114.376 11.585 114.48 10.9368 114.48 10.1777V10.1562C114.48 9.39714 114.376 8.74902 114.169 8.21191C113.961 7.6748 113.664 7.2666 113.277 6.9873C112.898 6.70085 112.443 6.55762 111.913 6.55762C111.39 6.55762 110.935 6.70085 110.549 6.9873C110.162 7.2666 109.865 7.6748 109.657 8.21191C109.449 8.74902 109.346 9.39714 109.346 10.1562V10.1777C109.346 10.9368 109.449 11.5885 109.657 12.1328C109.865 12.6699 110.158 13.0817 110.538 13.3682C110.925 13.6475 111.387 13.7871 111.924 13.7871Z" fill="black"/>
</svg>
